<svg id="Capa_1" data-name="Capa 1" xmlns="http://www.w3.org/2000/svg" viewBox="0 0 885.16 655.12"><defs><style>.cls-1{fill:#0071b0;}</style></defs><g id="icon-graduation"><path class="cls-1" d="M189.32,412.44c17.52,71.09,39.81,102.07,114.19,134.6s109.73,68,138.91,68S504.65,584,579.07,551.43,633.64,509,651.17,438L442.44,539.5l-253.1-127Zm612.5-185.22L487.25,51.06c-24.63-13.79-64.95-13.79-89.61,0L83,227.22C58.39,241,58.39,263.61,83,277.41L397.6,453.57c24.63,13.79,64.95,13.79,89.6,0L690.56,339.68,470,288a114.66,114.66,0,0,1-27.63,3.29c-39.73,0-71.91-19.17-71.91-42.78s32.18-42.81,71.91-42.81c30.85,0,57.11,11.58,67.31,27.82l233.58,76.64,58.51-32.75c24.63-13.79,24.63-36.39,0-50.19ZM705.68,561.09c-2.38,14.48,48.49,38.4,53.33-4.11,21.87-191.63-15.72-246.8-15.72-246.8L690.56,339.7S735.27,382.21,705.68,561.09Z"/></g></svg>